<?xml version="1.0" encoding="UTF-8"?>
<svg xmlns="http://www.w3.org/2000/svg" version="1.1" viewBox="0 0 100 100">
  <defs>
    <style>
      .cls-1 {
        fill: #8459cc;
      }
    </style>
  </defs>
  <!-- Generator: Adobe Illustrator 28.6.0, SVG Export Plug-In . SVG Version: 1.2.0 Build 709)  -->
  <g>
    <g id="Capa_1">
      <path class="cls-1" d="M14.15,50.7c1.33-19.97,18.6-35.09,38.57-33.76,9.35.62,17.64,4.74,23.67,10.99-6.87-9.44-18-15.57-30.56-15.57-20.86,0-37.77,16.91-37.77,37.77,0,17.9,12.45,32.89,29.17,36.79-14.4-5.57-24.16-20-23.08-36.22Z"/>
      <path class="cls-1" d="M64.01,48.07c.58.78,1.34,1.94,1.95,3.47.55,1.38,1.61,4.64.73,8.6-.62,2.82-2.16,5.44-4.61,7.89-1.69,1.69-3.5,2.77-7.1,4.94-1.35.82-3.02,1.76-5.16,3.44-1.67,1.32-2.41,2.12-2.73,2.49-.9,1.02-2.07,2.4-2.64,4.47-.36,1.32-.34,2.46-.28,3.19-1.05-1.31-2.91-4.04-3.3-7.84-.15-1.4-.45-4.33,1.15-6.96.6-.99,1.55-2.06,1.81-2.35.94-1.05,1.58-1.55,2.69-2.52,1.42-1.26,2.37-2.22,3.8-3.66.93-.93,2.2-2.26,3.66-3.94.07,1.57-.16,2.82-.36,3.64-.56,2.24-1.63,3.83-2.53,5.14-.73,1.07-1.44,1.89-1.93,2.44,2.14-.46,6.71-1.74,10.49-5.41.8-.78,2.64-2.6,3.91-5.51.88-2.03,1.1-3.68,1.14-4.05.17-1.46.06-2.61-.06-3.85-.14-1.48-.39-2.71-.61-3.62Z"/>
      <path class="cls-1" d="M48.49,47.13c.14-.79.27-1.88.27-3.18,0-1.08-.02-3.14-.84-5.47-.88-2.5-2.29-4.21-3.05-5.13-1.12-1.35-1.98-2.02-3.09-3.83-.54-.88-.9-1.65-1.13-2.17-.21.36-.47.85-.7,1.46-.1.27-.46,1.25-.6,2.63-.04.44-.15,1.77.2,3.5.27,1.34.68,2.27.84,2.66.59,1.4,1.24,3.61,1.49,7.06-.49-.22-1.18-.52-2.03-.82-.93-.33-1.74-.58-2.11-.66-1.89-.4-3.8-.33-5.74.11-2.07.47-2.33.79-5.01,1.26-.71.13-1.46.23-2.37.28-1.19.06-2.19,0-2.92-.09.27.82.72,1.93,1.49,3.12.42.65,1.63,2.38,3.78,3.81,3.19,2.12,6.47,2.25,7.81,2.22-1.73.31-4.13.43-6.71-.42-4.86-1.61-7.24-5.62-8.15-7.16-1.27-2.14-1.86-4.14-2.15-5.5,1.31.57,2.47.86,3.29,1.01,1.01.19,3.29.6,5.76-.09.35-.1.37-.13,2.2-.7,1.41-.44,2.12-.66,2.32-.71,1.02-.26,3.13-.77,5.65-.37.35.06.64.12.82.16-.04-.2-.11-.51-.2-.88-.17-.65-.31-1.12-.35-1.21-.85-2.14-1.04-4.38-.85-6.63.12-1.41.47-2.72,1.04-3.92.88-1.85,2.09-2.99,2.83-3.68.98-.91,1.91-1.53,2.58-1.92-.05.41-.1.99-.09,1.68,0,.62.04,1.91.51,3.34.32.97.77,1.67,1.68,3.07,1.03,1.59,1.25,1.62,2.09,2.97.57.91,1.15,1.84,1.63,3.18.62,1.72.75,3.16.84,4.23.06.78.13,1.68.01,2.84-.17,1.7-.65,3.05-1.04,3.93Z"/>
      <path class="cls-1" d="M52.11,86.9c1.72-3.18,4.6-7.74,9.28-12.23,2.7-2.59,2.91-2.2,5.36-4.69,2.82-2.87,8.56-8.72,9.1-16.31.15-2.06-.07-4.53-.14-5.4-.25-2.89-.74-5.26-1.15-6.91.66,1.02,1.56,2.58,2.3,4.6.59,1.62,2.93,8.62-.04,15.94-1.38,3.39-3.29,5.35-6.87,9.02-3.26,3.34-4.93,4.14-9.57,8.13-2.97,2.55-5.72,5.17-8.27,7.84Z"/>
      <path class="cls-1" d="M61.49,44.54c-.47-.07-1.17-.11-1.96.08-.83.19-1.7.64-3.3,2.2-1.36,1.33-2.47,2.85-3.54,4.4-.72,1.04-1.39,2.13-2.12,3.16-1.81,2.56-4.02,4.68-6.88,6.05-1.53.74-3.09,1.24-4.69,1.52-.58.1-2.73.45-5.52.1-2.54-.32-4.59-1.09-6.07-1.8,2.15.22,3.96.19,5.26.11,2.2-.14,4.82-.33,7.84-1.64,1.38-.6,2.7-1.36,3.96-2.31,1.35-1.01,2.52-2.23,3.55-3.57,1.45-1.87,2.82-3.8,4.55-5.44.95-.9,1.96-1.72,3.08-2.39,1.25-.76,2.59-1.27,4.09-1.15.37.03.69.13.69.13.48.15.83.38,1.05.55Z"/>
      <path class="cls-1" d="M82.76,53.26c-1.11-.2-1.98-.57-2.54-.87.31-.74.8-1.74,1.58-2.81.57-.78,1.6-2.15,3.47-3.26,1.63-.97,3.14-1.29,3.94-1.41,2.11-.32,3.84.05,4.79.33-.26.72-.68,1.7-1.35,2.77-.49.79-1.27,2.02-2.68,3.18-.7.58-1.67,1.36-3.19,1.83-.48.15-2.04.59-4.02.24Z"/>
      <path class="cls-1" d="M82.92,44.02c-.6.74-1.47,1.3-1.71,1.45-.78.5-1.52.77-2.04.93-.31-.55-.71-1.39-.94-2.48-.18-.86-.53-3.3.86-5.77,1.1-1.96,2.73-2.91,3.44-3.28.17.29.41.75.64,1.34.2.5,1.95,5.1-.26,7.81Z"/>
      <path class="cls-1" d="M86.83,64.75c-.01,1.09-.2,1.99-.37,2.62-.75-.19-1.88-.57-3.02-1.42-.42-.31-1.95-1.5-2.84-3.66-.13-.32-.62-1.56-.67-3.26-.02-.62.03-1.14.08-1.52.54-.05,1.39-.07,2.37.22,2.34.7,3.46,2.61,3.65,2.96.83,1.48.81,2.88.79,4.06Z"/>
      <circle class="cls-1" cx="71.56" cy="35.7" r="2.45"/>
      <circle class="cls-1" cx="67.54" cy="30.97" r="2.05"/>
      <circle class="cls-1" cx="63.95" cy="27.42" r="1.62"/>
      <circle class="cls-1" cx="60.51" cy="24.52" r="1.28"/>
    </g>
  </g>
</svg>